<svg width="900" height="400" viewBox="0 0 900 400" fill="none" xmlns="http://www.w3.org/2000/svg">
<path d="M360 362C360 357.029 364.029 353 369 353H396V362H360Z" fill="#482712"/>
<rect x="353" y="279.282" width="32" height="88" rx="16" transform="rotate(-15 353 279.282)" fill="#482712"/>
<path d="M541 362C541 357.029 536.971 353 532 353H505V362H541Z" fill="#482712"/>
<rect width="32" height="88" rx="16" transform="matrix(-0.965926 -0.258819 -0.258819 0.965926 547.686 279.282)" fill="#482712"/>
<rect x="369" y="214" width="160" height="148" rx="65" fill="#E8904F"/>
<path d="M414 350H402C398.686 350 394 355.373 394 362H422C422 355.373 417.314 350 414 350Z" fill="#E8904F"/>
<path d="M402 362C402 359 402 354 404 353" stroke="black"/>
<path d="M413 362C413 359 413 354 411 353" stroke="black"/>
<path d="M499 350H487C483.686 350 479 355.373 479 362H507C507 355.373 502.314 350 499 350Z" fill="#E8904F"/>
<path d="M488 362C488 359 488 354 490 353" stroke="black"/>
<path d="M499 362C499 359 499 354 497 353" stroke="black"/>
<path d="M377.555 193.343C378.937 176.757 392.801 164 409.444 164H489.556C506.199 164 520.063 176.757 521.445 193.343L523.585 219.017C526.5 253.998 498.894 284 463.792 284H435.208C400.106 284 372.5 253.998 375.415 219.017L377.555 193.343Z" fill="#F6D5A9"/>
<path d="M445 225.344C445 229.182 440.243 232.294 435.919 232.703C430.325 233.232 429 229.182 429 225.344C429 221.505 433.156 217.167 437.216 217.167C441.276 217.167 445 221.505 445 225.344Z" fill="#E8904F"/>
<ellipse cx="437" cy="228.167" rx="3" ry="2.75" fill="black"/>
<ellipse cx="463" cy="228.167" rx="3" ry="2.75" fill="black"/>
<path d="M405.119 270.506C410.767 242.457 437.393 232.481 450 231V302.111C442.738 302.111 436.216 300.136 433.863 299.148C431.342 302.605 418.534 311 414.701 311C410.554 311 398.06 305.568 405.119 270.506Z" fill="white"/>
<path d="M494.931 270.506C489.276 242.457 462.621 232.481 450 231V302.111C457.27 302.111 463.799 300.136 466.155 299.148C468.679 302.605 479.493 311 485.339 311C488.99 311 501.998 305.568 494.931 270.506Z" fill="white"/>
<path d="M450 231C437.393 232.481 410.767 242.457 405.119 270.506" stroke="black"/>
<path d="M429 296C430.833 298.167 437.8 302 449 302" stroke="black"/>
<path d="M469 296C467.167 298.167 460.2 302 449 302" stroke="black"/>
<path d="M450 240V246.5" stroke="black"/>
<path d="M460 255.5C460 250.253 455.747 246 450.5 246C445.253 246 441 250.253 441 255.5" stroke="black"/>
<path d="M441.5 252C439.9 252 439.833 248 440 246C440 248 442.5 248.833 443.5 249C443 249.833 441.5 251.6 441.5 252Z" stroke="black" stroke-linejoin="round"/>
<path d="M459.5 252C461.1 252 461.166 248 461 246C461 248 458.5 248.833 457.5 249C458 249.833 459.5 251.6 459.5 252Z" stroke="black" stroke-linejoin="round"/>
<path d="M450 231C462.607 232.481 489.232 242.457 494.88 270.506" stroke="black"/>
<circle cx="442.5" cy="231.5" r="2.5" fill="black"/>
<circle cx="457.5" cy="231.5" r="2.5" fill="black"/>
<path d="M457.619 229H442.381L440.476 233L446.667 239C446.984 239.333 448.095 240 450 240C451.905 240 453.016 239.333 453.333 239C453.651 238.667 459.524 233 459.524 233L457.619 229Z" fill="black"/>
<path d="M393 160H411.976C419.062 160 422.65 168.532 417.694 173.596L398.717 192.984C393.703 198.108 385 194.558 385 187.389V168C385 163.582 388.582 160 393 160Z" fill="#482712"/>
<path d="M505 160H486.024C478.938 160 475.35 168.532 480.306 173.596L499.283 192.984C504.297 198.108 513 194.558 513 187.389V168C513 163.582 509.418 160 505 160Z" fill="#482712"/>
</svg>
