<svg width="900" height="400" viewBox="0 0 900 400" fill="none" xmlns="http://www.w3.org/2000/svg">
<path d="M420 362C420 359.239 422.239 357 425 357H441V362H420Z" fill="#D69A6E"/>
<rect width="18.5976" height="50.7449" rx="9.29882" transform="matrix(0.966506 -0.256645 0.261009 0.965336 416 314.773)" fill="#D69A6E"/>
<path d="M479 362C479 359.239 476.761 357 474 357H458V362H479Z" fill="#D69A6E"/>
<rect width="18.5976" height="50.7449" rx="9.29882" transform="matrix(-0.966506 -0.256645 -0.261009 0.965336 483.219 314.773)" fill="#D69A6E"/>
<path d="M437.48 276.162C438.47 270.295 443.55 266 449.5 266C455.45 266 460.53 270.295 461.52 276.162L471.592 335.869C473.898 349.538 463.362 362 449.5 362C435.638 362 425.102 349.538 427.408 335.869L437.48 276.162Z" fill="#F6D5A9"/>
<path d="M441.286 354H432.714C430.347 354 427 357.582 427 362H447C447 357.582 443.653 354 441.286 354Z" fill="white"/>
<path d="M433 362C433 359.667 433 355.778 435 355" stroke="black"/>
<path d="M442 362C442 359.667 442 355.778 440 355" stroke="black"/>
<path d="M466.286 354H457.714C455.347 354 452 357.582 452 362H472C472 357.582 468.653 354 466.286 354Z" fill="white"/>
<path d="M458 362C458 359.667 458 355.778 459 355" stroke="black"/>
<path d="M466 362C466 359.667 466 355.778 464 355" stroke="black"/>
<path d="M427.63 256.517C422.859 241.399 434.147 226 450 226C465.853 226 477.141 241.399 472.37 256.517L462.072 289.151C460.409 294.419 455.524 298 450 298C444.476 298 439.591 294.419 437.928 289.151L427.63 256.517Z" fill="#D69A6E"/>
<circle cx="437" cy="259" r="3" fill="black"/>
<circle cx="463" cy="259" r="3" fill="black"/>
<ellipse cx="450" cy="291" rx="8" ry="4" fill="black"/>
<ellipse cx="431.649" cy="232.372" rx="7.53545" ry="7.37174" fill="#482712"/>
<ellipse cx="410.55" cy="258.91" rx="10.5496" ry="10.3204" fill="#482712"/>
<path d="M403.014 251.538L425.621 227.949L439 234L426.684 287.5L403.014 251.538Z" fill="#482712"/>
<path d="M400.184 284L400 258.91L419.684 264L426.684 283.5L400.184 284Z" fill="#482712"/>
<ellipse cx="413.685" cy="284" rx="13.5" ry="13" fill="#482712"/>
<ellipse cx="7.53545" cy="7.37174" rx="7.53545" ry="7.37174" transform="matrix(-1 0 0 1 476.071 225)" fill="#482712"/>
<ellipse cx="10.5496" cy="10.3204" rx="10.5496" ry="10.3204" transform="matrix(-1 0 0 1 500.184 248.589)" fill="#482712"/>
<path d="M497.17 251.538L474.564 227.949L461.184 234L473.5 287.5L497.17 251.538Z" fill="#482712"/>
<path d="M500 284L500.184 258.91L480.5 264L473.5 283.5L500 284Z" fill="#482712"/>
<ellipse cx="13.5" cy="13" rx="13.5" ry="13" transform="matrix(-1 0 0 1 500 271)" fill="#482712"/>
</svg>
