<svg width="900" height="401" viewBox="0 0 900 401" fill="none" xmlns="http://www.w3.org/2000/svg">
<path d="M392 362.282C392 357.864 395.582 354.282 400 354.282H428V362.282H392Z" fill="#DEDBDA"/>
<rect x="385" y="280.282" width="32" height="88" rx="16" transform="rotate(-15 385 280.282)" fill="#DEDBDA"/>
<path d="M507.686 362.282C507.686 357.864 504.104 354.282 499.686 354.282H471.686V362.282H507.686Z" fill="#DEDBDA"/>
<rect width="32" height="88" rx="16" transform="matrix(-0.965926 -0.258819 -0.258819 0.965926 514.686 280.282)" fill="#DEDBDA"/>
<path d="M424.55 97.8832C425.137 89.5005 432.108 83 440.511 83H459.489C467.892 83 474.863 89.5005 475.45 97.8832L492.802 345.883C493.45 355.137 486.118 363 476.841 363H423.159C413.882 363 406.55 355.137 407.198 345.883L424.55 97.8832Z" fill="#B8B6B7"/>
<path d="M420 252.879C432.618 246.285 445.924 204.879 451 185V361C440.961 324.787 420.706 252.466 420 252.879Z" fill="white"/>
<path d="M481 252.879C468.789 246.285 455.912 204.879 451 185V361C460.715 324.787 480.317 252.466 481 252.879Z" fill="white"/>
<path d="M420 351H408C404.686 351 400 356.373 400 363H428C428 356.373 423.314 351 420 351Z" fill="white"/>
<path d="M408 363C408 360 408 355 410 354" stroke="black"/>
<path d="M419 363C419 360 419 355 417 354" stroke="black"/>
<path d="M490 351H478C474.686 351 470 356.373 470 363H498C498 356.373 493.314 351 490 351Z" fill="white"/>
<path d="M479 363C479 360 479 355 481 354" stroke="black"/>
<path d="M490 363C490 360 490 355 488 354" stroke="black"/>
<path d="M420.177 66C416.997 51.0676 428.383 37 443.651 37H456.349C471.617 37 483.003 51.0676 479.823 66L462.614 146.79C461.346 152.744 456.087 157 450 157C443.913 157 438.654 152.744 437.386 146.79L420.177 66Z" fill="#DEDBDA"/>
<circle cx="437" cy="103" r="3" fill="black"/>
<circle cx="463" cy="103" r="3" fill="black"/>
<ellipse cx="450" cy="149" rx="8" ry="4" fill="black"/>
<path d="M439.709 4C444.209 4 443.709 37.9572 443.709 37.9572C432.224 40.849 423.077 62.3699 420.928 64.5C410.591 59.8731 430.209 4 439.709 4Z" fill="#482712"/>
<path d="M460.016 4C455.516 4 456.016 37.9572 456.016 37.9572C467.502 40.849 476.648 62.3699 478.797 64.5C489.134 59.8731 469.516 4 460.016 4Z" fill="#482712"/>
</svg>
