<svg width="900" height="400" viewBox="0 0 900 400" fill="none" xmlns="http://www.w3.org/2000/svg">
<path d="M382 363C382 356.925 386.925 352 393 352H426V363H382Z" fill="black"/>
<rect width="38.3375" height="97.3001" rx="19.1687" transform="matrix(0.971448 -0.237252 0.282043 0.959402 374 271.096)" fill="black"/>
<path d="M514 363C514 356.925 509.075 352 503 352H470V363H514Z" fill="black"/>
<rect width="38.5238" height="97.7728" rx="19.2619" transform="matrix(-0.971448 -0.237252 -0.282043 0.959402 522 271.14)" fill="black"/>
<path d="M421.593 159.013C423.25 144.755 435.327 134 449.681 134C464.107 134 476.22 144.859 477.791 159.199L497.086 335.387C498.641 349.592 487.517 362 473.228 362H424.951C410.598 362 399.454 349.486 401.112 335.229L421.593 159.013Z" fill="#45484B"/>
<path d="M421 255C432.632 249.305 445.32 226.168 450 209V362.147C440.745 330.873 421.651 254.643 421 255Z" fill="#E8904F"/>
<path d="M477 253.579C466.011 247.809 454.421 226.394 450 209V362C458.744 330.314 476.385 253.217 477 253.579Z" fill="#E8904F"/>
<path d="M426 351H414C410.686 351 406 356.373 406 363H434C434 356.373 429.314 351 426 351Z" fill="#E8904F"/>
<path d="M414 363C414 360 414 355 416 354" stroke="black"/>
<path d="M425 363C425 360 425 355 423 354" stroke="black"/>
<path d="M482 351H470C466.686 351 462 356.373 462 363H490C490 356.373 485.314 351 482 351Z" fill="#E8904F"/>
<path d="M471 363C471 360 471 355 473 354" stroke="black"/>
<path d="M482 363C482 360 482 355 480 354" stroke="black"/>
<path d="M407.894 123.086C412.052 104.898 428.231 92 446.888 92H449.625C468.953 92 485.516 105.82 488.978 124.835L490.009 130.496C490.545 133.44 490.245 136.475 489.143 139.256L472.665 180.841C469.04 189.991 460.195 196 450.353 196H445.647C435.805 196 426.961 189.991 423.335 180.841L407 139.618C405.809 136.61 405.557 133.312 406.278 130.158L407.894 123.086Z" fill="#45484B"/>
<ellipse cx="418.649" cy="100.372" rx="7.53545" ry="7.37174" fill="black"/>
<ellipse cx="397.55" cy="126.91" rx="10.5496" ry="10.3204" fill="black"/>
<path d="M390.014 119.538L412.621 95.9487L426 102L413.684 155.5L390.014 119.538Z" fill="black"/>
<path d="M387.184 152L387 126.91L406.684 132L413.684 151.5L387.184 152Z" fill="black"/>
<ellipse cx="400.685" cy="152" rx="13.5" ry="13" fill="black"/>
<ellipse cx="7.53545" cy="7.37174" rx="7.53545" ry="7.37174" transform="matrix(-1 0 0 1 485.071 93)" fill="black"/>
<ellipse cx="10.5496" cy="10.3204" rx="10.5496" ry="10.3204" transform="matrix(-1 0 0 1 509.184 116.589)" fill="black"/>
<path d="M506.17 119.538L483.564 95.9487L470.184 102L482.5 155.5L506.17 119.538Z" fill="black"/>
<path d="M509 152L509.184 126.91L489.5 132L482.5 151.5L509 152Z" fill="black"/>
<ellipse cx="13.5" cy="13" rx="13.5" ry="13" transform="matrix(-1 0 0 1 509 139)" fill="black"/>
<path d="M443.5 135.921C443.5 140.108 438.743 143.503 434.419 143.949C428.825 144.526 427.5 140.108 427.5 135.921C427.5 131.733 431.656 127 435.716 127C439.776 127 443.5 131.733 443.5 135.921Z" fill="#E8904F"/>
<circle cx="435.5" cy="139" r="3" fill="black"/>
<circle cx="461.5" cy="139" r="3" fill="black"/>
<path d="M429.28 168.429C432.193 156.089 441.997 153.652 448.5 153V181.286C444.643 181.286 443.8 180.547 442.586 180.113C441.285 181.633 445.543 191 429.765 191C425.348 191 425.638 183.853 429.28 168.429Z" fill="#E8904F"/>
<path d="M467.72 168.429C464.807 156.089 455.003 153.652 448.5 153V181.286C452.357 181.286 453.2 180.547 454.414 180.113C455.715 181.633 451.457 191 467.235 191C471.652 191 471.362 183.853 467.72 168.429Z" fill="#E8904F"/>
<path d="M448.5 153C443.198 153 432.151 153.5 429.5 169" stroke="black"/>
<path d="M448.5 153C453.802 153 464.849 153.5 467.5 169" stroke="black"/>
<path d="M448.5 166C448.5 171.5 442.5 172 442.5 182.5C442.5 187.683 437.026 191 429.5 191C428 191 425.7 190.2 426.5 185" stroke="black"/>
<path d="M448.5 166C448.5 171.5 454.5 172 454.5 182.5C454.5 187.683 459.974 191 467.5 191C469 191 471.3 190.2 470.5 185" stroke="black"/>
<ellipse cx="448.5" cy="155.5" rx="8" ry="3.5" fill="black"/>
</svg>
